<svg width="60" height="48" viewBox="0 0 60 48" fill="none" xmlns="http://www.w3.org/2000/svg">
<g id="Group">
<path id="Vector" fill-rule="evenodd" clip-rule="evenodd" d="M42.7419 0.651939C43.1511 1.03434 43.4648 1.49044 43.6825 2.02008C43.7382 1.53576 43.6527 1.07965 43.4259 0.651939C44.6291 0.622182 45.8262 0.679131 47.0173 0.822957C47.928 0.993291 48.84 1.16431 49.7536 1.33601C50.0982 1.57954 50.4972 1.69344 50.9507 1.67805C51.5478 1.93953 52.1749 2.11055 52.8319 2.1911C53.5423 2.46028 54.2834 2.68842 55.0552 2.87517C56.8194 3.45834 58.273 4.48445 59.4161 5.95349C60.248 7.52173 60.191 9.06089 59.2451 10.571C58.96 10.742 58.6751 10.913 58.39 11.084C57.9293 12.2454 57.1597 13.1005 56.0813 13.6493C55.5805 13.6604 55.1244 13.7745 54.7131 13.9913C53.9721 13.9913 53.2309 13.9913 52.4899 13.9913C51.5519 13.7943 50.5829 13.7659 49.5826 13.9058C49.2713 13.94 49.0434 14.0827 48.8985 14.3334C48.6391 14.3353 48.4395 14.4492 48.3 14.6754C48.0073 15.0954 47.7794 15.5515 47.6159 16.0436C47.4396 19.3011 46.3563 22.2084 44.3665 24.7655C41.72 27.185 39.4399 29.9213 37.5258 32.9743C36.72 34.5862 36.0074 36.2394 35.3881 37.9338C35.1446 38.2784 35.0307 38.6774 35.0461 39.131C34.2903 41.2743 34.3759 43.3837 35.3026 45.4586C35.9046 46.2014 36.6742 46.6573 37.6113 46.8268C36.9618 46.9949 36.2777 47.052 35.5591 46.9978C35.4451 46.9978 35.3312 46.9978 35.2171 46.9978C35.0869 46.8454 34.9159 46.7313 34.704 46.6558C34.2402 46.9567 33.7272 47.0708 33.1649 46.9978C32.9364 46.7396 32.7368 46.4545 32.5663 46.1427C32.4741 45.2746 32.1892 44.4765 31.7112 43.7485C31.5783 41.1274 31.4928 38.505 31.4547 35.8816C31.7218 34.9737 31.9783 34.0617 32.2243 33.1453C31.7391 33.8879 31.3687 34.686 31.1127 35.5396C30.8867 36.3191 30.7443 37.1172 30.6851 37.9338C29.4628 38.7009 28.2372 39.4419 27.0082 40.1571C26.8377 40.1622 26.7237 40.0767 26.6662 39.9006C27.1555 36.413 26.3004 33.3061 24.1009 30.5801C23.7055 30.0706 23.2494 29.6145 22.7328 29.2119C22.5582 29.2978 22.5296 29.4117 22.6473 29.554C23.0481 29.9834 23.4757 30.3824 23.9299 30.7511C26.2316 34.2735 26.5737 37.9788 24.956 41.8673C24.105 43.3166 22.9363 44.4568 21.4501 45.2876C21.3318 45.4479 21.3604 45.5618 21.5357 45.6297C21.8803 45.8732 22.2792 45.9871 22.7328 45.9717C23.7048 46.0132 24.674 46.0988 25.6401 46.2282C26.1738 46.3524 26.6298 46.6089 27.0082 46.9978C24.3215 47.2435 21.6422 47.215 18.9704 46.9123C17.7358 46.2287 17.2511 45.1741 17.5167 43.7485C17.03 44.5245 16.802 45.3796 16.8327 46.3137C16.3205 46.6819 15.7788 46.9668 15.208 47.1688C7.12893 48.7622 2.19798 45.5698 0.414944 37.5918C-0.0326099 35.6126 -0.118119 33.6174 0.158417 31.6062C0.401947 31.2616 0.515844 30.8626 0.500453 30.4091C1.08704 28.1085 2.08476 25.9992 3.49327 24.0814C6.97365 19.8637 11.3346 16.9279 16.5761 15.274C20.7579 14.5405 24.7482 13.2293 28.5474 11.3406C29.8972 10.5607 31.1515 9.64868 32.3098 8.60427C34.3507 6.42003 36.5168 4.39638 38.8085 2.53314C38.9981 2.54288 39.1691 2.59983 39.3215 2.70415C39.4777 3.34718 39.7627 3.91718 40.1766 4.41433C40.5065 4.69617 40.8485 4.98126 41.2027 5.26942C41.3773 5.18357 41.4059 5.06967 41.2882 4.92739C40.9503 4.7013 40.6938 4.41639 40.5186 4.0723C39.9221 3.0792 39.637 1.99614 39.6636 0.822957C39.904 0.742065 40.0181 0.571047 40.0056 0.309903C40.9727 -0.19631 41.8847 -0.082412 42.7419 0.651939Z" fill="white"/>
</g>
</svg>
